<svg width="20" height="20" viewBox="0 0 20 20" fill="none" xmlns="http://www.w3.org/2000/svg">
<path d="M18.3332 10C18.3332 14.6024 14.6022 18.3334 9.99984 18.3334C5.39746 18.3334 1.6665 14.6024 1.6665 10C1.6665 5.39765 5.39746 1.66669 9.99984 1.66669C14.6022 1.66669 18.3332 5.39765 18.3332 10Z" stroke="#14181F" stroke-width="1.5"/>
<path d="M12.2913 7.91667C12.2913 9.18232 11.2653 10.2083 9.99967 10.2083C8.73402 10.2083 7.70801 9.18232 7.70801 7.91667C7.70801 6.65101 8.73402 5.625 9.99967 5.625C11.2653 5.625 12.2913 6.65101 12.2913 7.91667Z" stroke="#14181F" stroke-width="1.5"/>
<path d="M4.58301 15.8334L5.05001 15.0162C5.79185 13.7179 7.17245 12.9167 8.66769 12.9167H11.3317C12.8269 12.9167 14.2075 13.7179 14.9493 15.0162L15.4163 15.8334" stroke="#14181F" stroke-width="1.5" stroke-linecap="round" stroke-linejoin="round"/>
</svg>
