<svg width="18" height="20" viewBox="0 0 18 20" fill="none" xmlns="http://www.w3.org/2000/svg">
<path d="M15.25 4.58331L14.7336 12.9376C14.6016 15.072 14.5356 16.1393 14.0006 16.9065C13.7361 17.2859 13.3955 17.6061 13.0006 17.8467C12.2018 18.3333 11.1325 18.3333 8.99395 18.3333C6.8526 18.3333 5.78192 18.3333 4.98254 17.8458C4.58733 17.6047 4.24666 17.284 3.98224 16.904C3.4474 16.1355 3.38288 15.0667 3.25384 12.9293L2.75 4.58331" stroke="#DF0C3D" stroke-width="1.5" stroke-linecap="round"/>
<path d="M1.5 4.58332H16.5M12.3798 4.58332L11.8109 3.40976C11.433 2.6302 11.244 2.24042 10.9181 1.99733C10.8458 1.94341 10.7692 1.89544 10.6892 1.85391C10.3283 1.66666 9.8951 1.66666 9.02877 1.66666C8.14069 1.66666 7.69665 1.66666 7.32974 1.86176C7.24842 1.905 7.17082 1.9549 7.09774 2.01096C6.76803 2.26391 6.58386 2.66795 6.2155 3.47604L5.71077 4.58332" stroke="#DF0C3D" stroke-width="1.5" stroke-linecap="round"/>
<path d="M6.91675 13.75L6.91675 8.75" stroke="#DF0C3D" stroke-width="1.5" stroke-linecap="round"/>
<path d="M11.0833 13.75L11.0833 8.75" stroke="#DF0C3D" stroke-width="1.5" stroke-linecap="round"/>
</svg>
