<svg width="20" height="22" viewBox="0 0 20 22" fill="none" xmlns="http://www.w3.org/2000/svg">
<path d="M1.35718 9C1.35718 5.22876 1.35718 3.34315 2.60197 2.17157C3.84677 1 5.85024 1 9.85718 1H10.6299C13.8911 1 15.5217 1 16.6541 1.79784C16.9786 2.02643 17.2666 2.29752 17.5095 2.60289C18.3572 3.66867 18.3572 5.20336 18.3572 8.27273V10.8182C18.3572 13.7814 18.3572 15.2629 17.8882 16.4462C17.1344 18.3486 15.54 19.8491 13.5188 20.5586C12.2616 21 10.6874 21 7.539 21C5.73993 21 4.84039 21 4.12195 20.7478C2.96697 20.3424 2.05593 19.4849 1.62514 18.3979C1.35718 17.7217 1.35718 16.8751 1.35718 15.1818V9Z" stroke="#6F7C8E" stroke-width="1.5" stroke-linejoin="round"/>
<path d="M18.3572 11C18.3572 12.8409 16.8648 14.3333 15.0238 14.3333C14.3581 14.3333 13.5731 14.2167 12.9258 14.3901C12.3507 14.5442 11.9014 14.9935 11.7473 15.5686C11.5739 16.216 11.6905 17.0009 11.6905 17.6667C11.6905 19.5076 10.1981 21 8.35718 21" stroke="#6F7C8E" stroke-width="1.5" stroke-linecap="round" stroke-linejoin="round"/>
<path d="M5.85718 6H12.8572" stroke="#6F7C8E" stroke-width="1.5" stroke-linecap="round" stroke-linejoin="round"/>
<path d="M5.85718 10H8.85718" stroke="#6F7C8E" stroke-width="1.5" stroke-linecap="round" stroke-linejoin="round"/>
</svg>
