<svg width="21" height="20" viewBox="0 0 21 20" fill="none" xmlns="http://www.w3.org/2000/svg">
<path d="M18.2389 9.20414C18.4923 9.55941 18.6189 9.73704 18.6189 9.99999C18.6189 10.2629 18.4923 10.4406 18.2389 10.7958C17.1005 12.3921 14.1933 15.8333 10.2856 15.8333C6.37792 15.8333 3.47068 12.3921 2.3323 10.7958C2.07895 10.4406 1.95227 10.2629 1.95227 9.99999C1.95227 9.73704 2.07895 9.55941 2.3323 9.20414C3.47068 7.60786 6.37792 4.16666 10.2856 4.16666C14.1933 4.16666 17.1005 7.60786 18.2389 9.20414Z" stroke="#14181F" stroke-width="1.5"/>
<path d="M12.7856 10C12.7856 8.61929 11.6664 7.5 10.2856 7.5C8.90493 7.5 7.78564 8.61929 7.78564 10C7.78564 11.3807 8.90493 12.5 10.2856 12.5C11.6664 12.5 12.7856 11.3807 12.7856 10Z" stroke="#14181F" stroke-width="1.5"/>
</svg>
