<svg width="18" height="4" viewBox="0 0 18 4" fill="none" xmlns="http://www.w3.org/2000/svg">
<path d="M16.5 2C16.5 1.30964 15.9404 0.75 15.25 0.75C14.5596 0.75 14 1.30964 14 2C14 2.69036 14.5596 3.25 15.25 3.25C15.9404 3.25 16.5 2.69036 16.5 2Z" stroke="#14181F" stroke-width="1.5"/>
<path d="M10.25 2C10.25 1.30964 9.69036 0.75 9 0.75C8.30964 0.75 7.75 1.30964 7.75 2C7.75 2.69036 8.30964 3.25 9 3.25C9.69036 3.25 10.25 2.69036 10.25 2Z" stroke="#14181F" stroke-width="1.5"/>
<path d="M4 2C4 1.30964 3.44036 0.75 2.75 0.75C2.05964 0.75 1.5 1.30964 1.5 2C1.5 2.69036 2.05964 3.25 2.75 3.25C3.44036 3.25 4 2.69036 4 2Z" stroke="#14181F" stroke-width="1.5"/>
</svg>
